<?xml version="1.0" standalone="no"?><!DOCTYPE svg PUBLIC "-//W3C//DTD SVG 1.1//EN" "http://www.w3.org/Graphics/SVG/1.1/DTD/svg11.dtd"><svg t="1603199694975" class="icon" viewBox="0 0 1024 1024" version="1.1" xmlns="http://www.w3.org/2000/svg" p-id="5889" xmlns:xlink="http://www.w3.org/1999/xlink" width="200" height="200"><defs><style type="text/css"></style></defs><path d="M512 1024c282.7776 0 512-229.2224 512-512S794.7776 0 512 0 0 229.2224 0 512s229.2224 512 512 512z m0-48.7424A463.2576 463.2576 0 1 1 512 48.7424a463.2576 463.2576 0 0 1 0 926.5152z" fill="#1296db" p-id="5890"></path><path d="M452.2496 738.9696a243.8144 243.8144 0 1 0-191.5904-191.5904 24.8832 24.8832 0 0 0 48.7936-9.6768 194.048 194.048 0 1 1 152.4736 152.4736 24.8832 24.8832 0 1 0-9.6768 48.7936z" fill="#1296db" p-id="5891"></path><path d="M409.6 524.8a64 64 0 1 0 128 0 64 64 0 0 0-128 0z" fill="#1296db" p-id="5892"></path><path d="M463.3088 513.5872C339.2512 556.544 256 661.9136 256 781.0048c0 8.448 5.12 16.1792 13.4144 20.4288a30.0544 30.0544 0 0 0 26.7776 0 23.1936 23.1936 0 0 0 13.4144-20.4288c0-98.7136 68.7616-187.392 173.312-223.5904 13.7216-4.8128 20.4288-18.432 15.0016-30.464-5.376-12.0832-20.8384-18.0224-34.6112-13.312z" fill="#1296db" p-id="5893"></path></svg>