<?xml version="1.0" standalone="no"?><!DOCTYPE svg PUBLIC "-//W3C//DTD SVG 1.1//EN" "http://www.w3.org/Graphics/SVG/1.1/DTD/svg11.dtd"><svg t="1603198796316" class="icon" viewBox="0 0 1024 1024" version="1.1" xmlns="http://www.w3.org/2000/svg" p-id="3138" xmlns:xlink="http://www.w3.org/1999/xlink" width="200" height="200"><defs><style type="text/css"></style></defs><path d="M0 0m512 0l0 0q512 0 512 512l0 0q0 512-512 512l0 0q-512 0-512-512l0 0q0-512 512-512Z" fill="#363B51" p-id="3139"></path><path d="M670.336 999.008c-49.856 16.224-103.072 24.96-158.336 24.96-55.296 0-108.544-8.736-158.432-24.992 23.04 2.752 31.552-12.256 31.552-25.216 0-5.632-0.096-15.584-0.224-28.896-0.16-15.392-0.32-35.296-0.48-58.24-142.432 30.976-172.48-68.672-172.48-68.672-23.264-59.2-56.832-74.912-56.832-74.912-46.496-31.808 3.52-31.168 3.52-31.168 51.36 3.616 78.4 52.8 78.4 52.8 45.696 78.304 119.84 55.68 149.024 42.56 4.64-33.12 17.888-55.68 32.512-68.48-113.696-12.96-233.216-56.896-233.216-253.216 0-55.936 19.936-101.664 52.704-137.504-5.28-12.96-22.848-65.024 4.992-135.584 0 0 43.008-13.76 140.8 52.512a491.392 491.392 0 0 1 128.192-17.28c43.488 0.256 87.296 5.92 128.192 17.28 97.728-66.272 140.64-52.48 140.64-52.48 27.936 70.528 10.368 122.56 5.088 135.552 32.832 35.84 52.64 81.568 52.64 137.504 0 196.8-119.712 240.128-233.76 252.8 18.368 15.84 34.752 47.072 34.752 94.88 0 45.824-0.288 85.696-0.48 112.096l-0.16 28.48c0 12.992 8.32 28.032 31.392 25.216z" fill="#FFFFFF" p-id="3140"></path></svg>