<?xml version="1.0" standalone="no"?><!DOCTYPE svg PUBLIC "-//W3C//DTD SVG 1.1//EN" "http://www.w3.org/Graphics/SVG/1.1/DTD/svg11.dtd"><svg t="1603279881269" class="icon" viewBox="0 0 1024 1024" version="1.1" xmlns="http://www.w3.org/2000/svg" p-id="4123" xmlns:xlink="http://www.w3.org/1999/xlink" width="200" height="200"><defs><style type="text/css"></style></defs><path d="M154.205091 442.181818H101.794909C58.461091 442.181818 23.272727 477.323636 23.272727 520.750545v401.408c0 43.426909 35.141818 78.568727 78.568728 78.568728h52.31709C197.585455 1000.727273 232.727273 965.585455 232.727273 922.158545v-401.454545C232.727273 477.323636 197.585455 442.181818 154.158545 442.181818z m843.450182 28.485818c-7.307636-28.485818-22.993455-50.827636-51.246546-60.788363a143.918545 143.918545 0 0 0-45.614545-7.168c-82.152727-0.651636-164.305455-0.232727-246.411637-0.232728-10.612364 0-10.938182-0.651636-9.30909-10.798545 5.12-30.021818 9.402182-60.136727 15.313454-89.879273 7.912727-40.401455 8.936727-80.523636-4.514909-119.714909-12.101818-35.234909-25.832727-70.004364-39.051636-104.913454-7.400727-19.735273-19.828364-34.164364-39.796364-42.449455-37.655273-15.825455-74.845091-15.499636-110.964364 3.258182-22.993455 12.101818-36.538182 31.325091-35.746909 58.693818 1.070545 38.632727 1.303273 77.265455 2.932364 115.898182a63.301818 63.301818 0 0 1-8.517818 35.514182c-29.789091 51.2-51.386182 90.996364-82.478546 141.405091-5.771636 9.309091-23.319273 27.042909-30.859636 35.002181-22.248727 23.458909-33.698909 38.725818-33.838546 64.465455-0.093091 93.742545-0.325818 300.032-0.744727 432.872727a78.475636 78.475636 0 0 0 78.661818 78.801455c114.734545-0.139636 323.211636-0.325818 425.425455-0.325818 24.436364 0 48.453818-1.536 72.005818-9.169455 46.685091-15.266909 76.055273-51.525818 79.732364-100.398545 1.442909-18.525091 0.558545-36.957091-6.050909-54.830546-1.024-2.513455 0.605091-6.888727 2.466909-9.402182 18.432-24.669091 29.463273-51.944727 27.461818-83.037091-0.605091-10.705455-4.002909-21.364364-7.261091-31.744-1.768727-5.585455-1.768727-9.262545 2.048-13.963636 17.594182-22.016 28.253091-47.104 27.415273-75.450182-0.465455-13.451636-5.352727-26.624-7.912728-39.936-0.605091-3.165091-1.070545-7.866182 0.698182-9.821091 15.034182-16.802909 23.458909-36.677818 27.834182-58.600727a6.050909 6.050909 0 0 1 1.489455-2.187636v-30.859637c-1.070545-3.397818-2.187636-6.749091-3.165091-10.24z" fill="#000000" opacity=".65" p-id="4124"></path></svg>