<?xml version="1.0" standalone="no"?><!DOCTYPE svg PUBLIC "-//W3C//DTD SVG 1.1//EN" "http://www.w3.org/Graphics/SVG/1.1/DTD/svg11.dtd"><svg t="1603290538080" class="icon" viewBox="0 0 1024 1024" version="1.1" xmlns="http://www.w3.org/2000/svg" p-id="1987" xmlns:xlink="http://www.w3.org/1999/xlink" width="10" height="10"><defs><style type="text/css"></style></defs><path d="M173.857391 277.815652a118.205217 118.205217 0 0 1 118.16069599-117.982609 118.205217 118.205217 0 0 1 118.11617401 117.982609c0 65.090783-52.98087 118.02713-118.11617401 118.027131a118.205217 118.205217 0 0 1-118.16069599-117.982609z m157.517913 0a39.401739 39.401739 0 0 0-78.803478 1e-8 39.401739 39.401739 0 0 0 78.803478-1e-8z" fill="#000000" p-id="1988"></path><path d="M1.157565 392.236522L1.157565 230.177391c0-196.65252199 72.88208699-229.776696 236.27687-229.776695l173.32313 0c91.40312999 0 118.427826 17.586087 185.789218 86.906434l393.75026 402.031305c43.631304 44.96695699 43.542261 130.181565 0.089044 174.970435l-315.080348 323.361391c-21.904696 22.528-53.604174 35.483826-86.995478 35.483826-33.56939101 0-65.580522-13.089391-87.707826-35.97356501l-362.540522-356.48556499c-79.51582601-80.539826-136.904348-138.72973899-136.90434801-238.413914z m944.70678301 184.58713c0-12.911304-4.318609-24.754087-11.93182601-32.589913l-393.794783-402.031304c-59.65913-61.44-67.094261-63.131826-129.380174-63.131826l-173.32313 0c-135.70226101 0-157.517913 10.24-157.517913 151.062261l0 162.148173c0 64.734609 35.038609 102.934261 114.19826101 183.117914l32.18921699 32.768 330.17321699 323.628521a43.76487 43.76487 0 0 0 31.83304401 12.688696c12.198957 0 23.240348-4.229565 30.45286899-11.664696L933.888 609.502609c7.568696-7.791304 11.976348-19.72312999 11.976348-32.63443501z" fill="#000000" p-id="1989"></path></svg>