<?xml version="1.0" standalone="no"?><!DOCTYPE svg PUBLIC "-//W3C//DTD SVG 1.1//EN" "http://www.w3.org/Graphics/SVG/1.1/DTD/svg11.dtd"><svg t="1603275956308" class="icon" viewBox="0 0 1024 1024" version="1.1" xmlns="http://www.w3.org/2000/svg" p-id="3137" xmlns:xlink="http://www.w3.org/1999/xlink" width="200" height="200"><defs><style type="text/css"></style></defs><path d="M161.29344 688A821.76 821.76 0 0 0 320.01344 789.12a448 448 0 0 0 192 48c251.52 0 490.88-283.52 501.12-295.68a46.72 46.72 0 0 0 0-58.88 1109.76 1109.76 0 0 0-150.4-146.56A814.72 814.72 0 0 0 704.01344 234.24a448 448 0 0 0-192-48 448 448 0 0 0-192 48 823.04 823.04 0 0 0-158.72 101.76A1141.76 1141.76 0 0 0 10.25344 481.92 46.08 46.08 0 0 0 0.01344 512a46.72 46.72 0 0 0 10.24 28.8 1112.32 1112.32 0 0 0 151.04 147.2zM201.61344 384a761.6 761.6 0 0 1 145.28-92.16A384 384 0 0 1 512.01344 250.24a384 384 0 0 1 165.12 41.6A754.56 754.56 0 0 1 821.77344 384a1088 1088 0 0 1 131.84 128 1088 1088 0 0 1-140.16 131.84 746.88 746.88 0 0 1-145.28 90.88 376.96 376.96 0 0 1-156.16 38.4 384 384 0 0 1-164.48-41.6A763.52 763.52 0 0 1 201.61344 640a1120.64 1120.64 0 0 1-132.48-128 1101.44 1101.44 0 0 1 132.48-128z" fill="#222222" p-id="3138"></path><path d="M512.01344 352A160 160 0 1 0 671.37344 512 160 160 0 0 0 512.01344 352z m64 227.84A95.36 95.36 0 1 1 607.37344 512 95.36 95.36 0 0 1 576.01344 579.84z" fill="#222222" p-id="3139"></path></svg>