<?xml version="1.0" standalone="no"?><!DOCTYPE svg PUBLIC "-//W3C//DTD SVG 1.1//EN" "http://www.w3.org/Graphics/SVG/1.1/DTD/svg11.dtd"><svg t="1603279857855" class="icon" viewBox="0 0 1024 1024" version="1.1" xmlns="http://www.w3.org/2000/svg" p-id="3279" xmlns:xlink="http://www.w3.org/1999/xlink" width="200" height="200"><defs><style type="text/css"></style></defs><path d="M469.33333334 693.33333332a96 96 0 1 1 0-192 96 96 0 0 1 0 192m0-256c-88.224 0-160 71.776-160 160s71.776 160 160 160 160-71.776 160-160-71.776-160-160-160" fill="#000000" p-id="3280"></path><path d="M469.33333334 885.33333332c-212.064 0-384-256-384-288s171.936-288 384-288 384 256 384 288-171.936 288-384 288m0-640C222.58133334 245.33333332 21.33333334 528.34133332 21.33333334 597.33333332c0 68.992 201.248 352 448 352s448-283.008 448-352c0-68.992-201.248-352-448-352" fill="#000000" p-id="3281"></path></svg>